<?xml version="1.0" standalone="no"?>
<!DOCTYPE svg PUBLIC "-//W3C//DTD SVG 20010904//EN"
 "http://www.w3.org/TR/2001/REC-SVG-20010904/DTD/svg10.dtd">
<svg version="1.0" xmlns="http://www.w3.org/2000/svg"
 width="700.000000pt" height="700.000000pt" viewBox="0 0 700.000000 700.000000"
 preserveAspectRatio="xMidYMid meet">
<metadata>
Created by potrace 1.14, written by Peter Selinger 2001-2017
</metadata>
<g transform="translate(0.000000,700.000000) scale(0.100000,-0.100000)"
fill="#000000" stroke="none">
<path d="M0 3500 l0 -3500 3500 0 3500 0 0 3500 0 3500 -3500 0 -3500 0 0
-3500z m4051 772 c106 -38 162 -89 206 -187 14 -33 18 -77 21 -247 l4 -208
-141 0 -141 0 0 148 c0 225 -19 263 -134 270 -72 5 -115 -12 -143 -55 -17 -25
-18 -68 -18 -553 0 -571 1 -577 55 -605 49 -26 106 -29 156 -10 74 28 84 60
84 278 l0 177 141 0 141 0 -4 -232 c-3 -219 -5 -236 -27 -285 -30 -68 -102
-134 -177 -164 -54 -22 -74 -24 -224 -24 -150 0 -170 2 -224 24 -80 32 -149
98 -178 170 l-23 56 0 600 c0 678 -1 666 78 752 53 58 91 80 179 103 97 27
284 22 369 -8z m960 14 c127 -27 207 -85 251 -181 l23 -50 3 -595 c2 -412 0
-611 -8 -647 -22 -101 -98 -180 -214 -220 -41 -15 -82 -18 -216 -18 -150 0
-170 3 -225 24 -80 32 -155 107 -181 181 -18 52 -19 91 -19 660 l0 605 26 55
c14 30 37 69 52 85 35 42 114 83 190 100 82 18 236 18 318 1z m-3793 -21 c128
-30 211 -94 248 -191 18 -46 19 -84 19 -649 l0 -600 -24 -49 c-31 -61 -78
-109 -139 -140 -88 -44 -140 -50 -422 -51 l-265 0 -3 848 -2 847 262 0 c197 0
279 -4 326 -15z m1182 -110 l0 -125 -235 0 -235 0 0 -230 0 -230 195 0 195 0
0 -125 0 -125 -195 0 -195 0 2 -242 3 -243 233 -3 232 -2 0 -125 0 -125 -372
2 -373 3 -3 848 -2 847 375 0 375 0 0 -125z m410 -487 c52 -335 97 -608 100
-608 3 0 48 274 100 610 l95 610 137 0 c124 0 136 -1 132 -17 -2 -10 -74 -388
-159 -841 -85 -452 -157 -827 -160 -832 -4 -6 -70 -10 -155 -10 -133 0 -149 2
-154 18 -6 19 -316 1664 -316 1676 0 3 64 5 143 4 l142 -3 95 -607z m3100 97
l175 -514 3 514 2 515 130 0 130 0 -2 -847 -3 -848 -131 -3 -131 -3 -184 547
-184 548 -3 -548 -2 -547 -128 3 -127 3 -3 848 -2 847 143 0 142 0 175 -515z"/>
<path d="M4759 4027 c-19 -13 -39 -38 -46 -57 -15 -45 -18 -1007 -3 -1062 21
-76 110 -113 205 -86 31 8 55 23 69 41 21 28 21 37 24 558 3 590 4 582 -63
613 -51 25 -145 21 -186 -7z"/>
<path d="M912 3433 l3 -598 100 0 c117 0 151 13 177 65 16 32 18 79 18 533 0
434 -2 503 -16 532 -24 51 -65 65 -183 65 l-101 0 2 -597z"/>
</g>
</svg>
