<svg width="24" height="24" viewBox="0 0 24 24" fill="none" xmlns="http://www.w3.org/2000/svg">
<g clip-path="url(#clip0_246_6)">
<path d="M0.219481 15.5303L2.22348 17.534C2.36413 17.6746 2.55486 17.7536 2.75373 17.7536C2.9526 17.7536 3.14334 17.6746 3.28398 17.534C3.49239 17.3244 3.74029 17.1583 4.01335 17.0452C4.2864 16.9321 4.57918 16.8743 4.87473 16.8751C6.11561 16.8751 7.12473 17.8842 7.12473 19.1251C7.12546 19.4207 7.06757 19.7135 6.95441 19.9867C6.84125 20.2598 6.67507 20.5077 6.46548 20.7162C6.32488 20.8569 6.24589 21.0476 6.24589 21.2465C6.24589 21.4453 6.32488 21.6361 6.46548 21.7767L8.46948 23.7803C8.61611 23.927 8.80773 24.0001 8.99973 24.0001C9.19173 24.0001 9.38373 23.927 9.52998 23.7803L23.78 9.53034C23.8498 9.4608 23.9052 9.37816 23.943 9.28717C23.9807 9.19617 24.0002 9.09862 24.0002 9.00009C24.0002 8.90156 23.9807 8.804 23.943 8.71301C23.9052 8.62201 23.8498 8.53938 23.78 8.46984L21.776 6.46621C21.6353 6.32561 21.4446 6.24662 21.2457 6.24662C21.0469 6.24662 20.8561 6.32561 20.7155 6.46621C20.5071 6.67578 20.2592 6.84192 19.9861 6.95501C19.7131 7.06811 19.4203 7.12592 19.1247 7.12509C17.8839 7.12509 16.8747 6.11596 16.8747 4.87509C16.8747 4.27396 17.1091 3.70921 17.534 3.28396C17.6746 3.14332 17.7536 2.95259 17.7536 2.75371C17.7536 2.55484 17.6746 2.36411 17.534 2.22346L15.53 0.219838C15.3893 0.0792345 15.1986 0.000247955 14.9997 0.000247955C14.8009 0.000247955 14.6101 0.0792345 14.4695 0.219838L0.219481 14.4698C0.149682 14.5394 0.094299 14.622 0.0565096 14.713C0.0187202 14.804 -0.000732422 14.9016 -0.000732422 15.0001C-0.000732422 15.0986 0.0187202 15.1962 0.0565096 15.2872C0.094299 15.3782 0.149682 15.4608 0.219481 15.5303ZM9.74973 7.06059L10.3445 7.65534C10.4907 7.80196 10.6827 7.87509 10.8747 7.87509C11.0667 7.87509 11.2587 7.80196 11.405 7.65534C11.5456 7.51469 11.6246 7.32396 11.6246 7.12509C11.6246 6.92621 11.5456 6.73548 11.405 6.59484L10.8102 6.00009L14.9997 1.81059L15.9957 2.80621C15.589 3.41938 15.3729 4.13927 15.3747 4.87509C15.3747 6.94284 17.057 8.62509 19.1247 8.62509C19.8604 8.62713 20.5802 8.41117 21.1932 8.00446L22.1889 9.00009L17.9997 13.1896L17.405 12.5948C17.3358 12.5232 17.253 12.4661 17.1615 12.4268C17.07 12.3875 16.9716 12.3668 16.872 12.3659C16.7724 12.365 16.6737 12.384 16.5815 12.4217C16.4893 12.4594 16.4056 12.5151 16.3352 12.5855C16.2648 12.656 16.2091 12.7397 16.1714 12.8319C16.1337 12.924 16.1147 13.0228 16.1155 13.1224C16.1164 13.222 16.1371 13.3204 16.1764 13.4119C16.2157 13.5034 16.2728 13.5862 16.3445 13.6553L16.9392 14.2501L8.99973 22.1896L8.00373 21.194C8.41049 20.5808 8.62658 19.8609 8.62473 19.1251C8.62473 17.0573 6.94248 15.3751 4.87473 15.3751C4.13906 15.373 3.41927 15.589 2.80623 15.9957L1.81061 15.0001L9.74973 7.06059Z" fill="white"/>
<path d="M12.5948 9.90525C12.741 10.0519 12.933 10.125 13.125 10.125C13.317 10.125 13.509 10.0519 13.6553 9.90525C13.7959 9.7646 13.8749 9.57387 13.8749 9.375C13.8749 9.17613 13.7959 8.9854 13.6553 8.84475L12.9053 8.09475C12.8361 8.02312 12.7533 7.96598 12.6618 7.92667C12.5703 7.88737 12.4719 7.86668 12.3723 7.86581C12.2727 7.86495 12.174 7.88392 12.0818 7.92163C11.9896 7.95934 11.9059 8.01503 11.8355 8.08545C11.7651 8.15587 11.7094 8.23961 11.6717 8.33178C11.634 8.42396 11.615 8.52272 11.6158 8.6223C11.6167 8.72189 11.6374 8.8203 11.6767 8.9118C11.716 9.00331 11.7731 9.08606 11.8448 9.15525L12.5948 9.90525ZM14.0948 11.4053L14.8448 12.1553C14.991 12.3019 15.183 12.375 15.375 12.375C15.567 12.375 15.759 12.3019 15.9053 12.1553C16.0459 12.0146 16.1249 11.8239 16.1249 11.625C16.1249 11.4261 16.0459 11.2354 15.9053 11.0948L15.1553 10.3448C15.0861 10.2731 15.0033 10.216 14.9118 10.1767C14.8203 10.1374 14.7219 10.1167 14.6223 10.1158C14.5227 10.1149 14.424 10.1339 14.3318 10.1716C14.2396 10.2093 14.1559 10.265 14.0855 10.3355C14.0151 10.4059 13.9594 10.4896 13.9217 10.5818C13.884 10.674 13.865 10.7727 13.8658 10.8723C13.8667 10.9719 13.8874 11.0703 13.9267 11.1618C13.966 11.2533 14.0231 11.3361 14.0948 11.4053Z" fill="white"/>
</g>
<defs>
<clipPath id="clip0_246_6">
<rect width="24" height="24" fill="white"/>
</clipPath>
</defs>
</svg>
